<?xml version="1.0" encoding="UTF-8" standalone="no"?>
<!-- Created with Inkscape (http://www.inkscape.org/) -->

<svg
   xmlns:dc="http://purl.org/dc/elements/1.1/"
   xmlns:cc="http://creativecommons.org/ns#"
   xmlns:rdf="http://www.w3.org/1999/02/22-rdf-syntax-ns#"
   xmlns:svg="http://www.w3.org/2000/svg"
   xmlns="http://www.w3.org/2000/svg"
   xmlns:sodipodi="http://sodipodi.sourceforge.net/DTD/sodipodi-0.dtd"
   xmlns:inkscape="http://www.inkscape.org/namespaces/inkscape"
   width="1900"
   height="400"
   viewBox="0 0 502.70832 105.83334"
   version="1.1"
   id="svg8"
   inkscape:version="0.92.4 (unknown)"
   sodipodi:docname="fileXY.svg"
   inkscape:export-filename="/home/mkirc/Bilder/Wurst/fileXY.png"
   inkscape:export-xdpi="96"
   inkscape:export-ydpi="96">
  <defs
     id="defs2">
    <inkscape:path-effect
       effect="spiro"
       id="path-effect122"
       is_visible="true" />
    <inkscape:path-effect
       effect="spiro"
       id="path-effect104"
       is_visible="true" />
    <inkscape:path-effect
       effect="spiro"
       id="path-effect91"
       is_visible="true" />
  </defs>
  <sodipodi:namedview
     id="base"
     pagecolor="#ffffff"
     bordercolor="#666666"
     borderopacity="1.0"
     inkscape:pageopacity="0.0"
     inkscape:pageshadow="2"
     inkscape:zoom="0.35"
     inkscape:cx="222.03604"
     inkscape:cy="199.81138"
     inkscape:document-units="mm"
     inkscape:current-layer="layer1"
     showgrid="false"
     units="px"
     inkscape:window-width="1366"
     inkscape:window-height="719"
     inkscape:window-x="0"
     inkscape:window-y="24"
     inkscape:window-maximized="1" />
  <metadata
     id="metadata5">
    <rdf:RDF>
      <cc:Work
         rdf:about="">
        <dc:format>image/svg+xml</dc:format>
        <dc:type
           rdf:resource="http://purl.org/dc/dcmitype/StillImage" />
        <dc:title></dc:title>
      </cc:Work>
    </rdf:RDF>
  </metadata>
  <g
     inkscape:label="Ebene 1"
     inkscape:groupmode="layer"
     id="layer1"
     transform="translate(0,-191.16665)">
    <path
       style="color:#000000;font-style:normal;font-variant:normal;font-weight:normal;font-stretch:normal;font-size:medium;line-height:normal;font-family:sans-serif;font-variant-ligatures:normal;font-variant-position:normal;font-variant-caps:normal;font-variant-numeric:normal;font-variant-alternates:normal;font-feature-settings:normal;text-indent:0;text-align:start;text-decoration:none;text-decoration-line:none;text-decoration-style:solid;text-decoration-color:#000000;letter-spacing:normal;word-spacing:normal;text-transform:none;writing-mode:lr-tb;direction:ltr;text-orientation:mixed;dominant-baseline:auto;baseline-shift:baseline;text-anchor:start;white-space:normal;shape-padding:0;clip-rule:nonzero;display:inline;overflow:visible;visibility:visible;opacity:1;isolation:auto;mix-blend-mode:normal;color-interpolation:sRGB;color-interpolation-filters:linearRGB;solid-color:#000000;solid-opacity:1;vector-effect:none;fill:#000000;fill-opacity:1;fill-rule:nonzero;stroke:none;stroke-width:0.26895857px;stroke-linecap:butt;stroke-linejoin:miter;stroke-miterlimit:4;stroke-dasharray:none;stroke-dashoffset:0;stroke-opacity:1;color-rendering:auto;image-rendering:auto;shape-rendering:auto;text-rendering:auto;enable-background:accumulate"
       d="m 67.613896,193.0029 c -8.091323,0.50283 -16.159629,1.10845 -24.416016,0.98148 -10.061339,0.64731 -20.539496,-0.20665 -30.476562,-0.0329 -3.6044834,-0.0266 -7.8889782,-0.90438 -11.4492184,1.15957 0.5081768,4.20181 2.1434094,3.29345 5.171875,3.02188 3.7602564,-1.36324 5.3013204,0.84922 4.9667964,3.96463 0.885826,6.85055 2.168231,13.62348 1.421875,20.65367 1.199252,8.95877 2.878901,17.8172 2.087891,27.09426 -0.07523,8.6726 0.112492,17.37944 0.138672,26.07214 0.769615,4.77004 -0.682842,9.63779 -0.566407,14.25372 -3.279898,0.63695 -7.7417681,-0.67235 -9.4277336,3.10899 -3.5997893,6.02496 0.4641854,1.92347 4.8828125,1.75389 11.7674591,-1.629 23.9301161,0.4493 35.9003901,-0.31749 5.593571,0.0651 11.170343,-0.0265 16.332031,-1.97457 3.581776,-0.57557 6.908159,-1.14563 10.535157,-1.06472 2.667704,-1.45147 1.76265,-6.03478 -1.773438,-4.49507 -3.390718,-0.0169 -7.712233,1.10647 -11.208984,1.47126 -0.249373,-5.78796 -2.89442,-11.39695 -0.767578,-17.11685 0.624353,-3.27095 -1.641229,-7.62393 -0.03711,-9.97742 2.453624,0.39626 7.009027,-0.72993 8.242188,0.44138 0.08879,5.36168 -0.91565,10.93094 0.328125,16.13344 3.095297,2.95786 4.905257,-2.3496 3.857421,-4.82029 -0.308345,-5.12431 0.14372,-10.44859 0.775391,-15.5856 -0.223333,-5.88694 0.692667,-11.90525 -1.201172,-17.57758 -4.083415,0.54504 -3.600778,2.77565 -3.326172,5.99922 0.686598,3.6331 0.06515,7.46368 0.273438,11.17184 -2.40007,-0.75671 -7.816485,1.33751 -8.935547,-0.75691 0.521609,-12.317 0.703395,-24.75405 0.728516,-37.1317 -0.316796,-4.47621 -2.125113,-10.10888 -1.822266,-13.8472 2.525227,6.6076 4.173015,13.59197 8.273438,19.51152 2.781918,6.00927 5.533651,12.1964 9.654296,17.41886 1.015115,3.18092 5.726458,5.29011 5.863282,0.7666 -0.206203,-3.89162 1.270934,-7.95434 0.310546,-11.97329 -0.484506,-8.79216 0.10826,-17.70179 0.757813,-26.4477 -1.045757,-3.50141 2.345548,-9.17081 -1.826172,-11.29185 -4.442591,-0.18041 -9.246375,-0.26149 -13.267578,-0.56721 z m -10.556641,4.0111 c -3.181035,1.61973 -5.012181,-1.06848 0,0 z m 9.521485,0.26134 c 3.777252,0.73982 8.761308,-0.0136 11.921875,0.8905 -0.170978,12.41782 -1.912119,24.89089 -0.550782,37.27687 0.504726,4.46536 -1.626968,0.26703 -2.654296,-1.1286 -3.559765,-8.43321 -8.927547,-15.95537 -11.38086,-24.70348 -0.935601,-4.05664 -3.365466,-7.91349 -4.802734,-11.44479 2.392172,-0.86062 5.023577,-0.29594 7.466797,-0.8905 z m -46.416016,0.8905 c 8.012124,0.42951 16.474197,0.5268 24.484375,0.006 2.521748,0.75687 8.049325,-1.70863 9.021484,0.98149 -0.541327,5.5095 -0.194628,10.96695 1.011719,16.29605 1.53701,8.70665 0.167017,17.8303 0.400391,26.71871 -0.493276,4.9216 0.401515,10.04527 -0.654297,14.86932 -8.431698,-0.91299 -17.06681,-0.57149 -25.523437,-1.31251 -3.286835,-0.0879 -6.506264,-0.38573 -9.728516,-0.69304 0.34266,-10.77595 0.144542,-21.47657 -2.085938,-31.83519 0.422826,-6.17468 0.285975,-12.29047 -1.013672,-18.27061 0.359421,-2.12683 -1.531327,-5.27278 0.002,-6.79293 1.348098,0.0874 2.757157,-0.10841 4.085937,0.0329 z m 56.660156,43.6865 c 0.145728,1.55288 -1.482688,-0.74753 0,0 z M 19.342412,259.2828 c 6.638156,0.79765 13.458099,1.00233 20.234375,1.14216 4.836624,0.53346 9.794833,0.17443 14.609375,0.87113 -0.400031,4.6391 1.218272,9.06198 -0.28711,13.52197 -1.145523,5.1029 2.257863,10.42785 1.166016,15.21004 -11.92853,0.96184 -24.121717,0.19532 -36.146485,0.15487 -0.04946,-5.45498 1.476169,-10.80703 0.25586,-16.20507 0.714317,-4.88 -0.275419,-10.01758 0.167969,-14.6951 z"
       id="path53"
       inkscape:connector-curvature="0" />
    <path
       style="color:#000000;font-style:normal;font-variant:normal;font-weight:normal;font-stretch:normal;font-size:medium;line-height:normal;font-family:sans-serif;font-variant-ligatures:normal;font-variant-position:normal;font-variant-caps:normal;font-variant-numeric:normal;font-variant-alternates:normal;font-feature-settings:normal;text-indent:0;text-align:start;text-decoration:none;text-decoration-line:none;text-decoration-style:solid;text-decoration-color:#000000;letter-spacing:normal;word-spacing:normal;text-transform:none;writing-mode:lr-tb;direction:ltr;text-orientation:mixed;dominant-baseline:auto;baseline-shift:baseline;text-anchor:start;white-space:normal;shape-padding:0;clip-rule:nonzero;display:inline;overflow:visible;visibility:visible;opacity:1;isolation:auto;mix-blend-mode:normal;color-interpolation:sRGB;color-interpolation-filters:linearRGB;solid-color:#000000;solid-opacity:1;vector-effect:none;fill:#000000;fill-opacity:1;fill-rule:nonzero;stroke:none;stroke-width:0.29671431px;stroke-linecap:butt;stroke-linejoin:miter;stroke-miterlimit:4;stroke-dasharray:none;stroke-dashoffset:0;stroke-opacity:1;color-rendering:auto;image-rendering:auto;shape-rendering:auto;text-rendering:auto;enable-background:accumulate"
       d="m 113.71762,197.96875 c -6.03198,1.15305 -12.51566,4.30222 -14.324222,10.75586 -2.456419,6.38886 -1.727266,15.36901 5.199222,18.62891 4.20238,2.03371 -3.64403,0.78579 -4.910159,1.08398 -2.726306,-0.45254 -5.590332,-0.41961 -8.326172,-0.89062 1.688558,-8.75556 -2.273681,-1.58067 -4.900391,1.85351 -2.375091,5.7814 0.36942,12.21994 0.0625,18.29102 -0.705798,2.64551 1.27954,8.70848 4.505859,5.10742 0.606752,-3.12093 2.96136,-6.54122 4.166016,-8.90235 -1.160449,8.4284 -0.29885,17.18443 -2.001953,25.45508 -0.244488,1.98402 -0.28588,5.9496 -0.4375,6.70117 -1.354115,-2.53548 0.342997,-8.38495 -4.207031,-7.21289 -2.530631,2.88089 -2.270767,7.41303 -4.328125,10.81641 -0.807988,5.11508 -3.223903,10.29304 -2.302735,15.51563 3.402613,2.81729 8.681539,-0.19542 12.720704,0.77343 8.689227,-1.24751 17.586757,-1.2593 26.412117,-2.03125 4.50815,-0.39936 9.10895,0.0786 13.54687,0.42969 1.09659,0.94949 5.94062,4.14705 6.47266,-0.11914 0.91442,-8.13848 -0.21542,-16.65088 1.34375,-24.68164 1.44585,-3.22544 -3.62312,-6.43124 -4.58399,-2.28516 -2.34609,4.83398 -3.86744,10.11264 -6.43164,14.86328 0.0657,-6.51215 1.68817,-12.92268 0.59766,-19.4707 -0.13044,-4.42297 1.31346,-8.59134 1.4707,-12.96484 1.01372,2.02081 1.62068,8.17176 5.69532,5.91601 1.97258,-3.08917 2.16121,-7.06338 4.22851,-10.20508 2.44099,-4.68488 4.42496,-10.15333 7.60547,-14.23828 2.24206,-1.67073 -0.0108,-5.3556 -2.11133,-4.23047 -4.05195,-2.37067 -2.39564,-0.14237 -7.39648,0.01 -4.97453,-0.28454 -12.27722,-0.098 -15.7793,-0.58789 4.38129,-4.42481 5.84639,-11.23545 5.2207,-17.25586 -1.4243,-3.41818 -3.01797,-7.50796 -6.84961,-9.20508 -3.80379,-2.1177 -8.31139,-2.06557 -12.18554,-4.43359 0.60937,0.83789 1.21875,1.67578 1.82812,2.51367 z m 0.96289,4.26563 c 3.89088,-0.0758 8.54589,0.85744 10.45703,4.60937 -0.72746,0.93644 0.76547,4.01959 1.16993,5.12891 1.01495,2.89024 -0.88563,6.72223 -2.23633,9.63281 -4.93121,6.30984 -15.99156,5.15953 -20.61914,-0.98828 -2.71734,-6.80577 0.50534,-16.43212 8.49218,-17.61719 0.85596,-0.34349 1.87067,-0.39018 2.73633,-0.76562 z m 33.85547,26.57226 c -0.42737,0.0688 -0.0845,-0.34488 0,0 z m 0.92383,1.21875 c -1.84095,0.7096 -1.59221,-2.72644 0,0 z m 1.80664,-0.78125 c -0.47692,0.94175 -0.5947,-1.3485 0,0 z m -1.51172,1.17188 c -0.17687,0.30227 -0.16133,-0.53451 0,0 z m -49.31055,0.67773 c -2.217559,2.66226 -4.358277,-1.32043 0,0 z m 34.52735,-0.12695 c 2.08486,1.20813 6.873,-1.42743 6.30469,2.22265 2.07009,-2.09149 5.44824,-2.78231 3.08398,0.46485 -2.37056,4.37084 -4.70397,9.77282 -6.94727,13.54101 -1.82269,-5.05293 -2.85758,-11.40999 -2.4414,-16.22851 z m -15.29102,-0.0176 c 2.62114,0.63176 8.7471,-1.11129 9.89649,0.5293 -1.71738,5.94736 0.89177,12.02587 -0.41992,18.07812 -1.08419,6.46652 -2.00371,13.06333 -1.16993,19.72656 -0.74708,6.66596 -1.2507,13.40079 -1.1914,20.24024 -8.90272,0.0694 -17.7201,0.8611 -26.53712,1.34375 -3.085765,1.02897 -3.70987,-0.58181 -3.054685,-3.66407 -0.612447,-9.16393 0.438701,-18.00426 1.503906,-26.84765 0.19338,-6.53243 0.06051,-13.11995 1.492189,-19.41797 -0.0359,-2.7495 1.14728,-5.31005 0.57422,-8.17383 6.49249,0.3779 12.61061,-1.16906 18.90625,-1.81445 z m -29.355471,0.9082 c 1.685641,0.79332 6.676472,-0.64835 4.414062,2.22852 -0.848181,2.89267 -3.084475,7.58686 -4.044922,9 -0.177993,-3.69617 -1.442278,-7.88275 -0.36914,-11.22852 z m 0.75,39.67578 c -1.508613,0.0157 0.589746,-0.43648 0,0 z m -0.314453,0.38477 c -2.0978,1.89339 -3.971414,-2.355 0,0 z m 2.15625,6.9043 c 1.107064,7.27132 -2.866566,-2.38849 0,0 z M 89.024257,279.25 c 1.397676,4.09358 1.971016,8.36725 3.572266,12.39258 -1.718957,-1.21351 -7.685866,2.08632 -6.089844,-1.5918 0.705438,-3.59856 1.199977,-7.50982 2.517578,-10.80078 z m 5.738282,1.24219 c -1.280645,1.27274 -1.216316,-2.72293 0,0 z m 42.431641,5.73828 c 0.54185,2.91214 -0.14526,4.71805 -3.00781,3.59375 -4.69845,0.75044 0.23379,-2.38341 0.13281,-4.53711 1.2051,-1.57638 2.03432,-3.39653 2.875,-5.21875 0,2.05404 0,4.10807 0,6.16211 z m -8.93164,3.21875 c -1.80161,1.74504 -0.72989,0.54822 0,0 z m -34.255861,1.13086 c 4.969682,0.19899 -1.089603,1.03345 0,0 z m 36.115241,0.60351 c -2.26543,3.77506 -4.98019,-1.83112 0,0 z m 8.93164,1.44336 c 2.88637,1.6629 -3.12841,0.30539 0,0 z m -0.92969,0.60352 c -0.74291,0.20148 0.50703,-0.80484 0,0 z m -1.75,-0.20899 c -0.36085,0.0855 0.13757,-0.22274 0,0 z"
       id="path65"
       inkscape:connector-curvature="0" />
    <path
       style="color:#000000;font-style:normal;font-variant:normal;font-weight:normal;font-stretch:normal;font-size:medium;line-height:normal;font-family:sans-serif;font-variant-ligatures:normal;font-variant-position:normal;font-variant-caps:normal;font-variant-numeric:normal;font-variant-alternates:normal;font-feature-settings:normal;text-indent:0;text-align:start;text-decoration:none;text-decoration-line:none;text-decoration-style:solid;text-decoration-color:#000000;letter-spacing:normal;word-spacing:normal;text-transform:none;writing-mode:lr-tb;direction:ltr;text-orientation:mixed;dominant-baseline:auto;baseline-shift:baseline;text-anchor:start;white-space:normal;shape-padding:0;clip-rule:nonzero;display:inline;overflow:visible;visibility:visible;opacity:1;isolation:auto;mix-blend-mode:normal;color-interpolation:sRGB;color-interpolation-filters:linearRGB;solid-color:#000000;solid-opacity:1;vector-effect:none;fill:#000000;fill-opacity:1;fill-rule:nonzero;stroke:none;stroke-width:0.30106592px;stroke-linecap:butt;stroke-linejoin:miter;stroke-miterlimit:4;stroke-dasharray:none;stroke-dashoffset:0;stroke-opacity:1;color-rendering:auto;image-rendering:auto;shape-rendering:auto;text-rendering:auto;enable-background:accumulate"
       d="m 184.09333,192.83183 c -5.6651,-1.57054 -7.00593,2.65328 -7.7539,0.008 -10.05845,-0.42097 -19.89803,0.88415 -29.87891,0.90625 -1.80107,4.22539 1.81089,4.07986 4.56836,5.4375 2.31708,1.65698 5.44209,2.31448 7.62695,3.64649 -0.45406,6.68963 -0.0446,13.5441 -1.85351,20.02343 -1.4876,5.38847 -2.69579,10.78929 -2.20117,16.52149 -0.67614,6.99314 -1.92954,13.88552 -3.60743,20.74805 0.76941,10.81335 -1.62959,21.64675 0.0234,32.26171 -0.87039,5.58126 6.19888,3.511 9.30273,3.5918 6.05373,0.67007 12.23716,-0.15411 18.26954,-0.52734 8.34503,-0.0461 16.47634,-1.10688 24.84961,-1.12305 2.67401,-1.07482 6.0571,-0.28271 8.39453,-1.97852 1.62,-9.28974 -0.25855,-19.34627 1.64843,-28.62695 0.004,-2.0532 -1.35226,-5.73153 -3.03906,-4.11523 -3.66899,1.98332 -5.66343,6.39747 -9.36133,8.63086 -5.66505,5.08389 -12.31924,9.10362 -16.4414,15.63476 -1.30972,1.44047 -3.16207,4.48604 -2.98047,0.81446 -0.50611,-6.41291 -0.53442,-13.12043 -0.42383,-19.51172 -0.11949,-9.81772 4.64729,-18.71427 5.76367,-28.31446 1.66166,-6.80567 5.83765,-12.78912 6.24024,-19.76367 0.53945,-6.99523 2.51789,-14.99148 -1.12891,-21.46094 -1.94544,-2.93676 -5.08063,-2.1552 -8.01758,-2.80273 z m -0.52148,4.29297 c 2.49759,0.54068 5.78055,0.2235 5.67969,3.64453 1.45419,6.34683 -0.26549,12.93014 -0.97266,19.25 -1.56273,6.8238 -5.77708,12.91507 -6.32617,20.00586 -1.80821,8.98176 -5.73734,17.71551 -5.22656,27.18555 0.52378,7.90407 -0.73034,16.1379 1.65429,23.6875 -5.19341,0.94312 -11.12958,0.98285 -16.61133,0.97265 -2.25209,-1.16563 -7.05694,1.55798 -6.48828,-1.87109 -1.50009,-9.33984 0.98275,-18.84196 0.0371,-28.41211 1.1883,-6.86312 3.02383,-13.66225 3.45313,-20.62891 0.0212,-5.88283 0.58065,-11.64098 2.38086,-17.19922 1.38899,-5.80357 1.6515,-11.84068 1.80078,-17.83593 0.19807,-2.71631 1.30533,-7.48107 -2.82617,-7.47266 -1.84011,-0.37232 -2.38805,-0.87709 -0.25586,-1.02734 7.87633,-0.24373 15.77479,-0.37741 23.70117,-0.29883 z m 27.0039,65.04883 c -2.51959,1.21602 -1.22054,-2.00972 0,0 z m 1.63086,-0.32813 c -0.0292,0.0926 -0.0574,-0.0728 0,0 z m -3.33789,0.38086 c 0.12793,0.33102 -0.24445,-0.0139 0,0 z m 1.625,0.92188 c 1.40535,0.51171 -1.79464,-0.2392 0,0 z m 1.66602,0.89257 c 2.18923,0.57799 -2.69873,1.5247 -0.72852,0.14649 0.28161,-0.13893 1.66339,-1.25618 0.72852,-0.14649 z m -0.99805,0.26758 c -0.51442,0.14765 0.11024,-0.14199 0,0 z m -2.57617,3.26563 c -1.11524,6.86474 0.46971,15.10791 -1.00781,21.34375 -7.25917,2.06036 -15.81499,0.8488 -23.07813,2.08398 3.82953,-4.74079 7.3262,-10.02348 12.48047,-13.5664 3.67658,-3.42882 8.1122,-6.3727 11.60547,-9.86133 z M 185.5406,288.4666 c -2.17675,0.44383 1.14692,-1.97937 0,0 z"
       id="path69"
       inkscape:connector-curvature="0" />
    <path
       style="color:#000000;font-style:normal;font-variant:normal;font-weight:normal;font-stretch:normal;font-size:medium;line-height:normal;font-family:sans-serif;font-variant-ligatures:normal;font-variant-position:normal;font-variant-caps:normal;font-variant-numeric:normal;font-variant-alternates:normal;font-feature-settings:normal;text-indent:0;text-align:start;text-decoration:none;text-decoration-line:none;text-decoration-style:solid;text-decoration-color:#000000;letter-spacing:normal;word-spacing:normal;text-transform:none;writing-mode:lr-tb;direction:ltr;text-orientation:mixed;dominant-baseline:auto;baseline-shift:baseline;text-anchor:start;white-space:normal;shape-padding:0;clip-rule:nonzero;display:inline;overflow:visible;visibility:visible;opacity:1;isolation:auto;mix-blend-mode:normal;color-interpolation:sRGB;color-interpolation-filters:linearRGB;solid-color:#000000;solid-opacity:1;vector-effect:none;fill:#000000;fill-opacity:1;fill-rule:nonzero;stroke:none;stroke-width:0.29791775px;stroke-linecap:butt;stroke-linejoin:miter;stroke-miterlimit:4;stroke-dasharray:none;stroke-dashoffset:0;stroke-opacity:1;color-rendering:auto;image-rendering:auto;shape-rendering:auto;text-rendering:auto;enable-background:accumulate"
       d="m 247.93287,207.21104 c -7.04446,1.057 -14.91114,1.0268 -19.72461,7.10938 -5.33389,4.92456 -7.30562,11.50167 -7.98828,18.45508 -2.62738,4.78023 -1.62583,10.26331 -1.40625,15.3789 -1.07208,8.61297 -3.60102,16.935 -2.58594,25.87305 0.99079,5.5292 -1.9442,12.26725 1.30469,17.14063 4.13354,2.85497 9.91688,-0.0984 14.55078,1.41601 7.14596,-0.73955 14.28317,0.25737 21.23828,1.01172 5.52544,0.78208 11.48756,3.79499 16.95899,1.47656 1.87214,-3.95548 0.64272,-8.83446 1.82617,-13.08398 1.28301,-7.86825 1.58548,-16.02659 1.05664,-24.07031 1.60057,-3.53891 -2.52749,-7.13332 -4.38477,-3.7793 -2.5482,6.67757 -6.61322,12.65352 -10.22265,18.79492 -3.74176,3.16541 -4.6167,8.08044 -7.88867,11.41992 -0.56079,-8.96287 2.93363,-17.25791 2.93554,-26.12695 0.29248,-4.61443 -0.49698,-9.88883 0.35547,-13.83594 6.82636,0.59632 13.60598,1.35015 20.32422,2.4668 3.2464,-1.37691 1.21521,-5.64015 1.29883,-8.34375 -0.2037,-9.10443 -5.13026,-17.15457 -8.91016,-25.21875 -4.18821,-5.69775 -12.32752,-6.36472 -18.73828,-6.08399 z m 1.08203,4.36133 c 5.61515,-0.1747 13.19171,0.75735 15.47461,6.77539 2.99588,6.87391 6.75066,13.62273 6.91016,21.23438 0.85697,2.3348 -0.29251,2.557 -2.25781,1.8789 -5.11152,-1.16567 -10.97084,-0.4466 -15.84376,-2.05273 -2.09011,-2.70242 -4.4168,1.26436 -7.11718,0.0195 -5.33448,0.0246 -10.36288,-0.57043 -15.6543,0 -2.39861,-0.2007 -5.58156,-0.12899 -7.46289,-0.88281 0.64843,-3.05349 2.11899,-5.90724 1.99805,-9.16016 1.30214,-8.54094 8.33179,-16.79902 17.32617,-16.84961 2.16766,-0.52449 4.45967,-0.49411 6.62695,-0.96289 z m 3.68946,28.17969 c 0.0268,1.97322 -1.40244,0.15916 -1.37891,2.86133 -3.61754,-0.59559 0.38344,-4.18998 1.37891,-2.86133 z m -29.54102,3.70117 c 4.97588,0.43622 10.23231,0.31158 15.13476,0.11524 3.59376,0.80135 7.5526,-0.46786 11.07227,0.4707 -0.46497,8.24682 0.51349,16.52656 -1.36719,24.61523 -1.58891,6.36237 -1.78018,12.95039 -1.85351,19.57032 -4.8138,-0.27846 -9.84431,-0.34784 -14.54102,-0.22071 -4.38984,-1.0619 -12.86768,2.62113 -11.11719,-4.38672 -0.25035,-10.47326 -0.41771,-20.91471 2.1543,-30.93359 0.66389,-2.83745 0.41178,-6.99314 0.51758,-9.23047 z m 46.00391,20.3086 c 0.51142,9.40959 -2.04523,18.30496 -2.38672,27.53906 -4.38734,0.20753 -9.4451,-1.67524 -13.3711,-2.32617 3.14071,-4.62109 5.08235,-9.99052 9.08985,-14.23047 2.37154,-3.5293 4.25415,-7.59162 6.66797,-10.98242 z m -20.3418,25.5957 c 1.99026,1.41471 -0.73011,-0.16563 0,0 z"
       id="path71"
       inkscape:connector-curvature="0" />
    <path
       style="color:#000000;font-style:normal;font-variant:normal;font-weight:normal;font-stretch:normal;font-size:medium;line-height:normal;font-family:sans-serif;font-variant-ligatures:normal;font-variant-position:normal;font-variant-caps:normal;font-variant-numeric:normal;font-variant-alternates:normal;font-feature-settings:normal;text-indent:0;text-align:start;text-decoration:none;text-decoration-line:none;text-decoration-style:solid;text-decoration-color:#000000;letter-spacing:normal;word-spacing:normal;text-transform:none;writing-mode:lr-tb;direction:ltr;text-orientation:mixed;dominant-baseline:auto;baseline-shift:baseline;text-anchor:start;white-space:normal;shape-padding:0;clip-rule:nonzero;display:inline;overflow:visible;visibility:visible;opacity:1;isolation:auto;mix-blend-mode:normal;color-interpolation:sRGB;color-interpolation-filters:linearRGB;solid-color:#000000;solid-opacity:1;vector-effect:none;fill:#000000;fill-opacity:1;fill-rule:nonzero;stroke:none;stroke-width:0.29297239px;stroke-linecap:butt;stroke-linejoin:miter;stroke-miterlimit:4;stroke-dasharray:none;stroke-dashoffset:0;stroke-opacity:1;color-rendering:auto;image-rendering:auto;shape-rendering:auto;text-rendering:auto;enable-background:accumulate"
       d="m 298.67422,192.6129 c -6.30034,0.0561 -12.60305,0.008 -18.9043,0.0274 3.27812,4.23196 7.55417,6.78873 11.55469,10.00585 5.47312,6.13326 12.90021,10.16326 18.62305,16.18165 0.71563,1.95597 2.22393,6.69724 4,3.6875 2.55831,2.57763 6.8825,4.70858 8.22851,7.80468 -3.60014,6.13533 -7.20906,12.24445 -9.50586,18.91993 -2.99063,7.60821 -8.58147,13.56149 -12.99804,20.32031 -2.05017,3.61707 -4.28715,7.31872 -7.02149,10.30078 -1.62727,2.6606 -2.90778,5.88945 -4.89062,8.125 -3.70605,1.81399 -9.02459,2.1429 -11.05274,6.00976 0.091,4.19986 5.61405,2.36857 7.61133,0.95704 4.55181,0.0735 8.79334,1.46283 13.30469,1.62304 7.40141,-0.5695 14.93489,-0.64917 22.39258,-1.11914 4.40231,-0.57063 9.49536,1.84841 13.53515,-0.74805 2.3369,-3.03829 -1.7557,-4.64435 -3.95312,-5.63476 3.52561,-6.88656 6.07546,-14.45597 10.53515,-20.91211 1.63759,-3.95571 4.78241,-6.96063 6.87696,-10.66602 2.65434,2.98063 -0.23207,7.51529 -0.93164,11.32032 -2.17771,5.40021 -4.14104,11.06722 -7.07422,16.17773 -0.99439,2.64267 -3.59576,8.26501 1.24218,8.31641 5.34415,0.17626 12.14064,-1.15126 18.18555,-1.84766 6.7002,-0.98333 13.66747,1.95847 20.20117,-0.002 2.64583,-3.63751 -3.40197,-5.06261 -4.15234,-8.26953 -6.3782,-6.2668 -11.35282,-13.5455 -17.40039,-20.1211 -1.97249,-3.88022 -6.6057,-6.37147 -7.91211,-10.52343 4.32119,-9.00579 11.19412,-16.60009 14.88672,-26.03516 2.49834,-5.15477 6.54124,-9.34178 7.85547,-14.98242 2.16285,-3.66619 5.80703,-6.53376 7.39062,-10.61328 2.9372,-0.37443 6.41541,-0.48665 8.63281,-2.44727 1.37547,-4.78782 -5.45773,-2.60344 -7.69726,-3.55664 -7.80143,-0.45883 -15.18085,0.71161 -22.86914,0.84375 -10.32634,0.86856 -20.80992,-0.58738 -31.0625,0.0332 -3.43924,2.89684 1.47603,4.93002 4.08984,5.10157 2.25125,0.89494 7.05688,-0.50826 7.44922,1.91601 -1.66874,2.47352 -4.60226,6.7048 -6.29101,10.36328 -1.65214,4.60496 -4.53839,8.79112 -6.87696,12.8711 -2.74776,-3.28723 -8.00775,-5.35329 -9.16211,-9.2793 1.34096,-6.55782 2.01457,-13.36715 2.9375,-19.92969 2.0803,-4.40063 -3.82729,-3.52993 -6.3164,-3.53515 -4.54795,-0.12354 -9.41864,-0.40431 -13.46094,-0.6836 z m 87.74805,4.97266 c -3.10412,4.62145 -3.05459,-5.88327 0,0 z m -57.88086,-1.38477 c 3.13148,1.90118 -1.62904,5.4764 0,0 z m -36.83985,0.76367 c 7.23573,0.23395 15.18771,0.4545 22.17188,0.95508 -0.60034,5.55186 -1.47608,11.07075 -2.29883,16.58008 -5.74454,-5.76624 -12.82483,-9.99993 -18.33398,-15.90039 -0.43783,-0.37235 -2.19153,-1.62719 -1.53907,-1.63477 z m 78.8418,2.29688 c 2.45531,-0.0715 5.96055,-0.76565 3.44922,2.09375 -2.36513,4.22613 -6.97285,7.26842 -7.48242,12.45312 -3.15613,5.17384 -6.36733,10.31171 -8.81055,15.9375 -3.46145,6.71523 -8.10705,12.74058 -11.875,19.19141 -4.15498,-4.17644 -7.26078,-9.03242 -11.67969,-13.01953 -1.94413,-2.3302 -4.4735,-4.63758 -6.07422,-6.92383 2.63722,-5.00316 6.01135,-9.40625 7.78125,-14.78125 2.65581,-4.6886 5.99984,-8.39759 8.01953,-13.3418 2.68808,-1.60069 8.89519,-0.13005 12.81641,-0.61132 4.59288,-0.76603 9.33678,0.0371 13.85547,-0.99805 z m -28.50977,1.52539 c 1.78826,2.65044 -2.88579,1.26933 0,0 z m 24.98047,14.62305 c 5.32569,-0.0678 -3.33164,1.01814 0,0 z M 325.25625,230.109 c -0.95817,1.27155 -1.24001,-1.42734 0,0 z m -1.27539,1.08789 c -1.19175,3.49907 -0.5526,1.63997 0,0 z m 1.72656,1.80468 c 4.10591,5.10276 9.22236,9.36335 13.06446,14.6543 1.48675,2.20507 4.61321,4.18116 5.10156,6.58789 -2.52556,4.37482 -6.02429,8.08053 -8.16602,12.6875 -4.11789,6.49383 -6.70229,13.66672 -10.24218,20.35547 -1.63992,0.6085 -1.59927,3.21532 -1.83008,3.70313 -6.33767,-0.11067 -12.57112,0.886 -18.96094,0.70703 -4.46906,0.42765 -8.97127,0.60297 -13.2168,-0.58399 2.54186,-4.17306 4.37933,-8.73278 7.65821,-12.47265 3.59577,-5.48223 6.82479,-11.16201 11.19335,-16.10938 3.58706,-5.72636 6.89033,-11.58073 8.89844,-18.10156 2.35027,-3.54827 4.04228,-8.06654 6.5,-11.42774 z m 26.41992,30.71094 c 3.1514,3.76156 6.24142,7.58962 9.43164,11.27539 3.08246,4.55917 7.35727,8.25826 10.5879,12.6875 -7.61836,-1.03734 -15.56553,-0.82175 -23.06641,0.6543 -2.06587,-0.49354 -6.16751,1.53414 -6.30626,-0.32985 1.04556,-3.49092 3.6776,-7.06642 4.7379,-11.05101 2.03203,-4.18782 3.37899,-8.8843 4.61523,-13.23633 z m -59.44921,24.00586 c -0.7937,1.25786 -0.84695,-0.97196 0,0 z m -2.45899,0.23828 c 1.16272,1.29354 -1.07537,-0.18816 0,0 z m 0.0508,0.54492 c -0.65021,0.26049 -0.41942,-0.91128 0,0 z m 86.98828,-0.10156 c 0.97518,4.99127 -1.04769,3.15593 0,0 z m -86.90625,2.43359 c -0.089,0.0557 0.0252,-0.0605 0,0 z m -10.17382,3.10157 c -0.35235,-0.043 0.35722,-0.7388 0,0 z m -0.4668,0.20312 c 0.38974,0.79261 0.11562,1.91894 0,0 z"
       id="path73"
       inkscape:connector-curvature="0" />
    <path
       style="color:#000000;font-style:normal;font-variant:normal;font-weight:normal;font-stretch:normal;font-size:medium;line-height:normal;font-family:sans-serif;font-variant-ligatures:normal;font-variant-position:normal;font-variant-caps:normal;font-variant-numeric:normal;font-variant-alternates:normal;font-feature-settings:normal;text-indent:0;text-align:start;text-decoration:none;text-decoration-line:none;text-decoration-style:solid;text-decoration-color:#000000;letter-spacing:normal;word-spacing:normal;text-transform:none;writing-mode:lr-tb;direction:ltr;text-orientation:mixed;dominant-baseline:auto;baseline-shift:baseline;text-anchor:start;white-space:normal;shape-padding:0;clip-rule:nonzero;display:inline;overflow:visible;visibility:visible;opacity:1;isolation:auto;mix-blend-mode:normal;color-interpolation:sRGB;color-interpolation-filters:linearRGB;solid-color:#000000;solid-opacity:1;vector-effect:none;fill:#000000;fill-opacity:1;fill-rule:nonzero;stroke:none;stroke-width:0.31427535px;stroke-linecap:butt;stroke-linejoin:miter;stroke-miterlimit:4;stroke-dasharray:none;stroke-dashoffset:0;stroke-opacity:1;color-rendering:auto;image-rendering:auto;shape-rendering:auto;text-rendering:auto;enable-background:accumulate"
       d="m 416.36523,193.39453 c -4.4942,0.3394 -8.51145,-0.19293 -13.04882,0.14453 -3.60842,0.18318 -7.09765,0.74419 -10.61524,0.12891 -4.43258,1.10219 -0.91544,4.70968 1.53516,6.05664 5.81612,4.80228 12.27661,8.57261 17.18555,14.36523 4.2507,3.6219 8.02131,8.16335 13.02734,11.08399 2.84112,2.92274 6.86942,5.50655 9.7832,7.98242 -2.35261,3.21476 -3.69381,7.12023 -6.58203,10.02148 1.17554,1.13299 -1.86805,3.29889 -2.44727,4.89454 -2.74621,3.62023 -3.76806,8.29975 -7.36132,11.33789 -1.57852,3.78016 -5.3647,5.83114 -6.75391,9.70312 -3.68389,5.00345 -6.84608,10.39502 -10.26562,15.52149 -2.72858,4.41039 -8.84429,2.90818 -13.10352,4.97265 -3.64805,-0.2305 -3.59832,5.5167 0.0859,4.98047 12.69417,0.0522 25.34242,0.0257 37.8789,-0.55859 8.28836,0.39212 16.79692,0.68635 24.92969,2.16015 3.61473,0.69074 3.8491,-4.84678 0.28516,-5.13672 -3.84094,-2.02309 -9.13089,-2.75219 -12.40625,-4.79687 4.204,-6.70895 8.08857,-13.63603 13.44336,-19.72461 3.18563,-6.5111 8.99366,-11.71102 11.25195,-18.54297 3.5494,-5.57718 7.84053,-10.73089 10.42383,-16.68164 3.45531,-5.1524 6.21289,-10.66929 10.17187,-15.5293 1.59809,-4.478 6.26212,-7.78261 7.19336,-12.36914 3.3457,-2.24801 8.25493,-3.1296 10.16797,-6.98437 1.50323,-2.94658 -3.81166,-2.76848 -5.88672,-3.07227 -3.79068,-0.53655 -3.93183,-0.35971 -6.25195,0.63282 -7.50152,0.7162 -15.15961,0.7163 -22.67969,1.30859 -7.33228,-0.0615 -14.51885,-1.08122 -21.83594,-0.4082 -3.47097,3.17951 1.91819,5.49775 4.66993,5.34179 1.79388,1.20382 6.1495,1.49648 3.27539,3.99219 -2.72502,6.96701 -8.6245,12.05139 -11.76563,18.78711 -1.47592,1.94637 -2.69316,4.61491 -4.29492,6.08984 -5.34354,-3.80772 -10.38528,-8.12966 -15.64258,-12.19531 -1.41503,-1.35016 -4.49092,-3.47073 -0.90625,-3.88281 4.64185,-2.82524 8.7703,-5.97364 12.27539,-10.13477 2.35639,-2.86 7.40777,-4.15099 7.43946,-8.17383 -3.50703,-3.38088 -9.58038,-0.83877 -14.00196,-1.68164 -2.64387,0.36017 -7.79819,-0.59493 -9.17383,0.36719 z m -23.18554,0.70117 c 4.86521,1.0976 -3.91363,2.64022 0,0 z m 53.02734,1.25196 c 1.61808,6.71995 -2.82659,-0.3246 0,0 z m -53.96484,2 c -0.22513,0.002 -0.24842,-0.56632 0,0 z m -0.16016,-0.082 c -0.0884,0.015 0.004,-0.17329 0,0 z m 28.31641,0.11133 c 2.86121,0.48983 10.18567,-0.86218 10.86523,0.51563 -3.8921,3.2193 -6.95257,7.27665 -11.42383,9.79687 -1.80799,1.54644 -5.42657,1.63985 -5.97461,2.59375 -4.1802,-4.76713 -9.998,-8.68118 -14.60937,-12.21289 4.7512,-0.24622 9.19967,0.0411 13.91406,-0.0723 2.22733,-0.80184 4.97048,0.257 7.22852,-0.6211 z m -26.54297,0.47657 c -0.59248,0.12136 0.44934,-0.67441 0,0 z m 97.44336,0.26367 c -2.20326,1.29989 -5.63511,1.85077 -4.98633,5.26172 -2.06009,3.9137 -5.3142,7.00632 -7,11.14453 -4.12359,5.42918 -7.34399,11.32368 -10.91406,17.09179 -2.10294,4.42046 -5.22323,8.39583 -7.94922,12.37696 -6.3132,-3.47344 -13.07307,-7.21924 -18.74219,-11.88672 -2.77118,-0.6563 0.84313,-3.188 1.23438,-4.78125 2.64964,-4.13467 5.0305,-8.34214 8.12109,-12.17188 2.00737,-2.82224 3.98363,-5.68207 5.36133,-8.81445 1.1212,-1.11742 3.86046,-5.55162 0.41406,-7.05273 6.97877,0.5279 14.05124,0.37031 20.9707,-0.32032 4.3752,-0.10118 9.6598,-0.1436 13.49024,-0.84765 z m -1.65235,7.41406 c -1.01535,-0.66497 1.02645,-1.01296 0,0 z m -2.0625,0.0156 c 2.89327,0.54569 -1.87333,0.0595 0,0 z m -1.88476,0.47851 c -0.55293,0.89368 0.07,-1.01064 0,0 z m 0.50781,4.08594 c -0.13382,0.40458 -0.23773,-0.38924 0,0 z m -48.04687,25.04883 c 4.81833,3.17593 9.19743,6.98252 14.50242,9.4453 2.94597,1.74577 7.27242,3.39539 3.91359,6.79493 -2.49791,4.62397 -6.49521,8.53142 -8.70508,13.32813 -4.7164,5.44412 -8.69848,11.54557 -12.14648,17.83203 -1.4324,0.12278 -1.6109,3.03034 -2.75781,4.5 -1.22621,2.41318 5.26409,3.68464 1.1875,2.96093 -4.74402,-0.65293 -9.54674,-0.0289 -14.23047,-0.32031 -5.70367,-0.16676 -12.07506,0.98469 -17.59961,0.47461 4.05759,-5.98139 7.98044,-12.22317 12.05078,-18.10156 1.94036,-4.02123 5.56301,-6.96804 7.63672,-10.82813 4.14609,-3.92086 5.14077,-9.74742 8.94922,-13.92968 2.45103,-3.98913 4.54233,-8.46727 7.19922,-12.15625 z m -17.15821,24.61718 c 0.38081,-2.57423 3.23369,-5.09546 0,0 z m -34.01562,30.66407 c -0.0114,0.0542 -0.0236,-0.0418 0,0 z m 0.66601,0.59179 c 1.5497,8.43159 -2.44697,-1.86399 0,0 z m 63.55274,1.35547 c 2.05762,6.39625 -1.90861,2.10027 0,0 z"
       id="path77"
       inkscape:connector-curvature="0" />
  </g>
</svg>
